<?xml version="1.0"?>
<svg xmlns="http://www.w3.org/2000/svg" viewBox="0 0 390 398" role="img" aria-labelledby="title">
  <title id="title">Body</title>
  <path fill="#22304e" fill-rule="evenodd" d="M70 77L76 66L83 62L92 61L107 68L137 89L163 104L183 110L208 111L224 108L244 100L302 62L316 62L326 69L329 75L329 86L322 97L306 106L299 112L295 113L288 119L284 120L280 124L276 125L269 131L249 141L249 210L252 234L289 335L288 349L281 358L273 361L266 361L258 358L253 353L221 265L216 257L205 251L195 251L189 253L180 261L146 353L141 358L134 361L123 360L114 354L110 346L110 336L134 270L136 268L138 259L140 257L149 226L150 141L137 135L133 131L129 130L125 126L121 125L114 119L110 118L106 114L102 113L95 107L76 96L70 86ZM165 39L172 24L181 16L195 11L208 12L220 17L229 26L234 38L234 54L228 67L220 75L204 81L191 80L181 76L171 67L165 54Z"></path>
</svg>