<?xml version="1.0"?>
<svg xmlns="http://www.w3.org/2000/svg" viewBox="0 0 478 424" role="img" aria-labelledby="title">
  <title id="title">Chart</title>
  <path fill="#22304e" fill-rule="evenodd" d="M66 246L70 230L75 221L84 212L93 207L112 203L133 203L138 205L144 211L145 352L142 358L138 361L133 363L112 363L99 361L84 354L72 341L66 321ZM178 96L181 81L185 73L192 66L208 60L234 59L253 63L259 66L267 74L271 83L273 94L273 352L269 359L261 363L191 363L184 360L178 352ZM306 151L309 145L318 139L339 139L355 142L364 146L376 156L384 174L385 322L381 337L376 346L365 356L353 361L340 363L319 363L312 360L306 352Z"></path>
</svg>