<?xml version="1.0"?>
<svg xmlns="http://www.w3.org/2000/svg" viewBox="0 0 438 382" role="img" aria-labelledby="title">
  <title id="title">Cognition</title>
  <path fill="#22304e" fill-rule="evenodd" d="M71 186L74 173L79 162L86 152L94 145L91 135L91 116L95 101L100 91L116 73L126 68L127 66L142 62L149 47L160 35L175 27L196 25L211 29L221 35L224 39L227 39L230 35L245 27L254 25L275 27L285 31L298 41L305 51L309 62L319 64L329 69L340 79L342 79L352 92L358 105L360 114L360 135L357 145L367 154L372 164L374 165L380 184L380 206L378 214L372 228L367 234L370 244L370 266L368 274L362 288L349 304L332 315L311 320L303 331L285 342L272 345L254 344L237 337L227 328L224 328L219 334L202 343L192 345L170 343L152 334L141 323L140 320L127 318L107 308L97 299L97 297L89 288L81 265L81 246L84 234L79 228L73 214L71 205ZM100 194L103 209L116 226L116 236L111 247L110 255L113 269L120 280L123 281L126 285L135 289L152 290L157 292L161 296L164 304L168 307L168 309L176 314L191 315L204 308L204 306L209 301L211 294L211 73L209 66L204 59L196 55L186 55L179 58L173 64L171 68L170 80L164 88L140 93L131 99L130 102L126 105L122 113L120 125L123 139L127 145L127 155L124 161L116 165L108 172L103 180ZM240 74L240 293L243 302L252 312L260 315L271 315L283 309L294 292L298 290L311 290L321 287L330 281L336 274L340 264L341 251L335 236L335 228L337 223L348 210L351 192L348 180L343 172L338 167L330 163L324 155L324 146L330 134L331 123L329 113L322 101L309 92L293 90L285 86L281 80L281 73L278 64L274 59L266 55L256 55L246 60L241 68Z"></path>
</svg>