<?xml version="1.0"?>
<svg xmlns="http://www.w3.org/2000/svg" viewBox="0 0 504 412" role="img" aria-labelledby="title">
  <title id="title">Digestion</title>
  <path fill="#22304e" fill-rule="evenodd" d="M108 329L113 309L119 297L127 288L127 286L146 270L158 264L173 260L233 259L244 256L257 247L257 245L263 239L267 229L268 179L245 176L223 166L206 151L197 138L191 124L188 110L188 54L191 47L196 42L203 39L211 39L219 42L225 48L227 53L227 99L230 114L239 128L253 137L261 139L279 139L289 124L308 109L325 102L342 99L362 100L379 105L399 117L415 135L422 148L427 167L427 244L425 256L418 279L405 303L392 317L392 319L371 337L349 349L327 356L305 359L278 358L251 351L235 343L223 333L221 333L206 319L193 311L185 309L172 309L160 314L152 322L148 331L147 345L144 351L135 358L124 359L115 355L111 351L108 345ZM307 178L307 199L325 203L338 210L360 233L375 239L387 239L387 170L381 156L370 145L354 139L342 139L331 142L330 144L324 146L314 156L308 170Z"></path>
</svg>