<?xml version="1.0"?>
<svg xmlns="http://www.w3.org/2000/svg" viewBox="0 0 590 356" role="img" aria-labelledby="title">
  <title id="title">Energy</title>
  <path fill="#22304e" fill-rule="evenodd" d="M80 101L83 90L90 78L105 65L118 60L249 59L217 89L125 89L115 94L110 102L109 249L111 258L115 264L124 269L177 269L175 275L175 293L177 299L124 299L112 296L99 289L87 276L82 266L80 258ZM170 175L179 163L181 163L190 153L192 153L202 142L204 142L213 132L215 132L225 121L227 121L290 62L293 60L302 59L308 61L312 65L314 69L314 78L281 164L337 164L347 170L349 174L349 184L338 197L336 197L327 207L325 207L315 218L313 218L304 228L302 228L292 239L290 239L281 249L279 249L269 260L267 260L229 296L222 299L210 296L205 289L205 280L238 194L182 194L172 188L170 183ZM271 298L290 280L292 280L302 269L394 269L404 264L407 260L410 252L409 103L405 95L395 89L342 89L345 78L344 64L342 59L395 59L414 65L430 79L436 89L439 99L439 139L451 142L457 148L459 153L459 205L451 216L444 219L439 219L439 258L432 276L416 292L396 299Z"></path>
</svg>