<?xml version="1.0"?>
<svg xmlns="http://www.w3.org/2000/svg" viewBox="0 0 504 398" role="img" aria-labelledby="title">
  <title id="title">Home</title>
  <path fill="#22304e" fill-rule="evenodd" d="M86 170L90 162L95 157L97 157L109 144L111 144L123 131L125 131L137 118L139 118L151 105L153 105L165 92L167 92L232 30L242 25L255 27L280 51L282 51L294 64L296 64L308 77L310 77L322 90L324 90L336 103L338 103L350 116L352 116L364 129L366 129L378 142L380 142L392 155L394 155L402 163L405 169L405 181L397 192L388 195L375 195L375 313L372 322L360 337L353 340L352 342L340 345L152 345L136 340L130 336L122 327L116 313L116 195L103 195L93 191L86 181ZM205 254L205 315L286 315L286 253L284 244L276 232L262 225L230 225L218 230L210 238Z"></path>
</svg>