<?xml version="1.0"?>
<svg xmlns="http://www.w3.org/2000/svg" viewBox="0 0 518 392" role="img" aria-labelledby="title">
  <title id="title">Mood</title>
  <path fill="#22304e" fill-rule="evenodd" d="M78 176L85 142L97 114L114 89L136 67L161 50L189 38L217 32L257 32L285 38L317 52L339 67L362 90L377 112L391 144L397 173L397 208L391 237L377 270L362 292L338 316L314 332L286 344L258 350L218 350L190 344L158 330L136 315L113 292L98 270L84 237L78 207ZM107 190L109 213L114 233L123 254L135 272L140 276L140 278L157 294L175 306L199 316L225 321L250 321L275 316L303 304L323 290L344 267L358 242L365 220L368 196L366 168L359 143L351 126L337 106L322 91L300 76L276 66L250 61L226 61L200 66L172 78L156 89L152 94L150 94L129 118L117 140L110 163ZM152 227L158 220L167 220L182 225L215 230L259 230L293 225L307 220L317 220L323 225L323 230L316 246L307 259L295 271L285 278L274 284L259 289L230 291L217 289L202 284L179 270L169 260L169 258L165 255L159 246L154 236ZM168 156L171 149L176 144L183 141L195 142L199 144L206 152L207 167L199 178L192 181L184 181L175 177L171 173L168 167ZM268 156L271 149L276 144L283 141L295 142L299 144L306 152L307 167L299 178L292 181L284 181L275 177L271 173L268 167Z"></path>
</svg>