<?xml version="1.0"?>
<svg xmlns="http://www.w3.org/2000/svg" viewBox="0 0 552 404" role="img" aria-labelledby="title">
  <title id="title">Peace</title>
  <path fill="#22304e" fill-rule="evenodd" d="M102 178L109 144L121 116L138 91L160 69L185 52L213 40L241 34L281 34L309 40L341 54L363 69L386 92L401 114L415 146L421 175L421 210L415 239L401 272L386 294L362 318L338 334L310 346L282 352L242 352L214 346L182 332L160 317L137 294L122 272L108 239L102 209ZM141 192L145 224L150 239L156 251L159 252L163 247L165 247L174 238L176 238L179 234L181 234L190 225L192 225L201 216L203 216L206 212L208 212L217 203L219 203L228 194L230 194L233 190L242 184L242 75L226 78L210 84L209 86L190 96L173 111L173 113L163 123L149 149L143 171ZM183 283L191 291L212 303L229 309L242 311L242 236L236 239L226 249L224 249L215 258L213 258L210 262L208 262L204 267L202 267ZM281 75L281 183L304 203L311 207L315 212L327 220L331 225L338 229L342 234L354 242L358 247L367 252L377 229L382 200L380 171L370 140L353 114L332 95L304 80ZM281 236L281 311L290 310L313 302L329 293L340 284L336 279L334 279L330 274L328 274L297 247L290 243L286 238Z"></path>
</svg>