<?xml version="1.0"?>
<svg xmlns="http://www.w3.org/2000/svg" viewBox="0 0 494 398" role="img" aria-labelledby="title">
  <title id="title">Sick</title>
  <path fill="#22304e" fill-rule="evenodd" d="M84 249L89 241L96 238L211 215L220 216L225 219L229 225L229 235L204 355L195 361L189 361L182 358L164 331L126 338L120 338L113 335L108 329L107 321L114 281L87 263L84 258ZM104 166L111 132L123 104L140 79L162 57L187 40L215 28L243 22L283 22L311 28L343 42L365 57L388 80L403 102L417 134L423 163L423 198L417 227L403 260L388 282L364 306L340 322L312 334L284 340L243 340L239 339L239 335L244 310L276 311L289 309L310 303L329 294L349 280L363 266L363 264L374 251L384 232L389 218L393 198L393 164L389 145L383 128L377 116L363 96L348 81L346 81L336 72L318 62L302 56L276 51L252 51L226 56L212 61L190 73L178 84L176 84L155 108L143 130L136 153L133 180L134 201L105 206ZM179 123L183 117L193 117L245 143L248 147L248 155L245 159L191 186L186 186L181 183L179 179L179 173L188 163L190 163L201 152L203 152L203 150L180 131ZM253 264L259 238L285 224L293 224L297 226L319 242L329 239L340 240L346 248L345 256L340 262L323 268L314 268L289 251L258 268L253 268ZM279 148L282 143L336 116L341 116L347 120L348 129L345 134L343 134L338 140L330 145L324 152L326 152L337 163L345 168L345 170L348 172L348 179L342 186L334 185L281 158L279 155Z"></path>
</svg>