<?xml version="1.0"?>
<svg xmlns="http://www.w3.org/2000/svg" viewBox="0 0 492 414" role="img" aria-labelledby="title">
  <title id="title">Sleep</title>
  <path fill="#22304e" fill-rule="evenodd" d="M114 190L117 184L125 179L241 179L247 181L252 186L254 191L252 201L158 328L241 329L248 332L253 339L253 349L247 357L242 359L126 359L117 354L114 348L114 340L116 336L209 209L126 209L118 205L115 201ZM214 50L217 44L225 39L301 39L308 42L313 48L313 59L311 63L262 119L304 120L308 122L313 129L313 139L311 143L302 149L226 149L219 146L214 139L215 127L236 104L236 102L243 96L243 94L250 88L250 86L257 80L257 78L264 72L265 69L223 68L215 61ZM294 190L297 184L305 179L381 179L387 181L392 186L394 191L393 200L339 268L381 269L388 272L393 279L393 289L387 297L382 299L306 299L299 296L295 292L295 277L348 209L303 208L295 201Z"></path>
</svg>