<?xml version="1.0"?>
<svg xmlns="http://www.w3.org/2000/svg" viewBox="0 0 544 368" role="img" aria-labelledby="title">
  <title id="title">Spa</title>
  <path fill="#22304e" fill-rule="evenodd" d="M76 145L109 145L132 148L160 156L180 165L206 182L230 205L230 207L234 210L234 212L238 215L246 227L255 246L257 245L266 226L275 213L279 210L279 208L283 205L283 203L309 179L341 160L362 152L390 146L435 145L435 163L428 197L414 230L392 262L370 284L336 307L306 319L282 324L242 325L206 319L172 305L145 287L120 263L120 261L115 257L98 232L86 206L78 177ZM109 176L115 199L126 222L137 238L141 241L141 243L158 260L160 260L163 264L179 275L195 283L222 292L239 294L231 264L223 247L208 225L190 207L170 193L151 184L126 177ZM192 135L206 105L208 104L217 87L220 85L229 71L235 66L235 64L256 45L278 66L278 68L283 72L283 74L295 88L304 105L306 106L320 138L310 142L293 153L288 137L279 119L277 118L270 104L256 87L251 91L251 93L247 96L236 112L223 137L218 152L215 152L205 144L192 138ZM272 293L284 293L316 283L335 273L350 261L352 261L372 241L386 221L396 200L401 185L402 176L386 177L361 184L340 194L324 205L321 209L319 209L304 224L288 247L281 261Z"></path>
</svg>