<?xml version="1.0"?>
<svg xmlns="http://www.w3.org/2000/svg" viewBox="0 0 508 334" role="img" aria-labelledby="title">
  <title id="title">Tablet</title>
  <path fill="#22304e" fill-rule="evenodd" d="M64 164L71 130L83 102L100 77L122 55L147 38L175 26L203 20L243 20L271 26L303 40L325 55L348 78L363 100L377 132L383 161L383 196L377 225L363 258L348 280L341 286L341 288L316 310L288 326L264 334L184 334L162 327L130 309L114 294L112 294L93 272L76 242L67 214L64 195ZM103 178L105 200L111 222L122 244L129 254L135 259L135 261L153 277L176 290L198 297L224 299L224 59L199 61L179 67L156 79L143 91L141 91L123 112L112 133L106 152Z"></path>
</svg>