<?xml version="1.0"?>
<svg xmlns="http://www.w3.org/2000/svg" viewBox="0 0 440 404" role="img" aria-labelledby="title">
  <title id="title">Weight</title>
  <path fill="#22304e" fill-rule="evenodd" d="M84 90L86 83L93 71L102 63L110 59L120 57L168 57L173 52L190 43L215 37L231 37L248 40L271 50L279 57L327 57L339 60L349 66L358 76L363 88L363 305L355 322L340 334L328 337L120 337L108 334L98 328L88 316L84 305ZM113 96L113 297L115 303L118 306L326 307L333 302L334 96L331 89L327 87L304 87L308 94L312 108L313 139L309 156L303 169L298 174L290 177L154 176L144 169L138 156L134 139L135 110L143 87L121 87L114 92ZM163 126L164 138L167 147L212 147L231 103L237 98L247 97L256 103L258 107L258 117L244 147L281 147L284 130L282 111L271 89L255 75L242 69L232 67L216 67L206 69L185 80L170 98L165 111Z"></path>
</svg>